<?xml version="1.0" encoding="utf-8"?>
<!-- Generator: Adobe Illustrator 23.0.5, SVG Export Plug-In . SVG Version: 6.00 Build 0)  -->
<svg version="1.1" id="Слой_1" xmlns="http://www.w3.org/2000/svg" xmlns:xlink="http://www.w3.org/1999/xlink" x="0px" y="0px"
	 viewBox="0 0 1000 1000" style="enable-background:new 0 0 1000 1000;" xml:space="preserve">
<style type="text/css">
	.st0{fill:url(#SVGID_1_);}
</style>
<linearGradient id="SVGID_1_" gradientUnits="userSpaceOnUse" x1="-129.1779" y1="1129.178" x2="1041.9377" y2="-41.9377">
	<stop  offset="0" style="stop-color:#07E8A2"/>
	<stop  offset="0.4037" style="stop-color:#13E4C2"/>
	<stop  offset="1" style="stop-color:#26DCF9"/>
</linearGradient>
<path class="st0" d="M565.38,457.91v117.35h-97.59c-18.28,0-33.16-14.88-33.16-33.16V424.74h97.59
	C550.5,424.74,565.38,439.62,565.38,457.91z M739.18,237.54H467.79c-18.28,0-33.16,14.88-33.16,33.16v88.25h97.59
	c54.56,0,98.95,44.39,98.95,98.95v117.35h108.01c18.28,0,33.16-14.88,33.16-33.16V270.7C772.34,252.42,757.46,237.54,739.18,237.54z
	 M368.83,542.09V424.74H260.82c-18.28,0-33.16,14.88-33.16,33.16V729.3c0,18.28,14.88,33.16,33.16,33.16h271.39
	c18.28,0,33.16-14.88,33.16-33.16v-88.26h-97.59C413.22,641.04,368.83,596.65,368.83,542.09z M1000,200.28v599.44
	c0,110.61-89.67,200.28-200.28,200.28H200.28C89.67,1000,0,910.33,0,799.72V200.28C0,89.67,89.67,0,200.28,0h599.44
	C910.33,0,1000,89.67,1000,200.28z M838.13,270.7c0-54.56-44.39-98.95-98.95-98.95H467.79c-54.56,0-98.95,44.39-98.95,98.95v88.25
	H260.82c-54.56,0-98.95,44.39-98.95,98.95V729.3c0,54.56,44.39,98.95,98.95,98.95h271.39c54.56,0,98.95-44.39,98.95-98.95v-88.26
	h108.01c54.56,0,98.95-44.39,98.95-98.95V270.7z"/>
</svg>
