<?xml version="1.0" encoding="utf-8"?>
<!-- Generator: Adobe Illustrator 23.0.5, SVG Export Plug-In . SVG Version: 6.00 Build 0)  -->
<svg version="1.1" id="Слой_1" xmlns="http://www.w3.org/2000/svg" xmlns:xlink="http://www.w3.org/1999/xlink" x="0px" y="0px"
	 viewBox="0 0 1000 1000" style="enable-background:new 0 0 1000 1000;" xml:space="preserve">
<style type="text/css">
	.st0{fill:url(#SVGID_1_);}
</style>
<linearGradient id="SVGID_1_" gradientUnits="userSpaceOnUse" x1="258.3722" y1="741.6278" x2="708.1243" y2="291.8757">
	<stop  offset="0" style="stop-color:#07E8A2"/>
	<stop  offset="0.4037" style="stop-color:#13E4C2"/>
	<stop  offset="1" style="stop-color:#26DCF9"/>
</linearGradient>
<path class="st0" d="M525.11,483.84v45.07h-37.48c-7.02,0-12.74-5.71-12.74-12.73V471.1h37.48
	C519.39,471.1,525.11,476.81,525.11,483.84z M591.85,399.2H487.63c-7.02,0-12.74,5.71-12.74,12.74v33.89h37.48
	c20.95,0,38,17.05,38,38v45.07h41.48c7.02,0,12.74-5.71,12.74-12.73V411.94C604.59,404.92,598.88,399.2,591.85,399.2z
	 M449.63,516.17V471.1h-41.48c-7.02,0-12.74,5.71-12.74,12.74v104.23c0,7.02,5.71,12.73,12.74,12.73h104.23
	c7.02,0,12.73-5.71,12.73-12.73v-33.89h-37.48C466.68,554.17,449.63,537.12,449.63,516.17z M692.02,384.9V615.1
	c0,42.48-34.44,76.92-76.92,76.92H384.9c-42.48,0-76.92-34.44-76.92-76.92V384.9c0-42.48,34.44-76.92,76.92-76.92H615.1
	C657.58,307.98,692.02,342.42,692.02,384.9z M629.86,411.94c0-20.95-17.05-38-38-38H487.63c-20.95,0-38,17.05-38,38v33.89h-41.48
	c-20.95,0-38,17.05-38,38v104.23c0,20.95,17.05,38,38,38h104.23c20.95,0,38-17.05,38-38v-33.89h41.48c20.95,0,38-17.05,38-38V411.94
	z"/>
</svg>
